# xmcd CD database file
#
# Track frame offsets:
#	150
#	16828
#	37105
#	59315
#	73600
#	91415
#	103410
#	117160
#	132738
#	151690
#	166738
#	183465
#
# Disc length: 2692 seconds
#
# Revision: 0
# Processed by: cddbd v1.4PL0 Copyright (c) Steve Scherf et al.
# Submitted via: CDex 1.40Beta8
#
DISCID=a00a820c
DTITLE=Trond Granlund - The Ride
DYEAR=1986
DGENRE=Blues
TTITLE0=Whatever Gets You Though The Night
TTITLE1=Looking At You
TTITLE2=Elenore
TTITLE3=Some People
TTITLE4=I Was Only Curious
TTITLE5=Betty Jo
TTITLE6=You Talk In Your Sleep
TTITLE7=Waiting Game
TTITLE8=I Need A Stranger
TTITLE9=Miss Biemeyer
TTITLE10=Cabbageville
TTITLE11=Permanent Loser
EXTD=YEAR: 1986 ID3G: 0
EXTT0=
EXTT1=
EXTT2=
EXTT3=
EXTT4=
EXTT5=
EXTT6=
EXTT7=
EXTT8=
EXTT9=
EXTT10=
EXTT11=
PLAYORDER=
